REM MD5 82e57c45ef5170f21741d2ec8f3e9170
FILE "Euro Demo 46 (France).bin" BINARY
  TRACK 01 MODE2/2352
    INDEX 01 00:00:00
  TRACK 02 AUDIO
    INDEX 00 27:24:55
    INDEX 01 27:26:55
  TRACK 03 AUDIO
    INDEX 00 29:09:50
    INDEX 01 29:11:50
  TRACK 04 AUDIO
    INDEX 00 30:30:50
    INDEX 01 30:32:50
  TRACK 05 AUDIO
    INDEX 00 32:26:46
    INDEX 01 32:28:46
  TRACK 06 AUDIO
    INDEX 00 34:10:71
    INDEX 01 34:12:71
REM LEADOUT 37:14:29
